<svg xmlns="http://www.w3.org/2000/svg" width="1080" height="1920" viewBox="0 0 1080 1920">
 <rect width="1080" height="1920" fill="#611e0f"/>
 <rect y="0" width="1080" height="360" fill="#8a2c12"/>
 <rect y="360" width="1080" height="330" fill="#7c2711"/>
 <rect y="690" width="1080" height="310" fill="#6f2310"/>
 <path d="M0 1010Q270 950 540 1010T1080 1010V1090H0Z" fill="#57200f"/>
 <path d="M0 1080Q200 1020 430 1074T1080 1064V1150H0Z" fill="#4a1c0e"/>
 <path d="M0 1130L250 1054 480 1130 700 1064 900 1130 1080 1080V1920H0Z" fill="#3c2014"/>
 <g fill="#2c150d">
  <path d="M120 1330l60-16 24 240-70 14Z"/>
  <path d="M420 1290l54 10-14 300-62-6Z"/>
  <path d="M760 1330l58-12 40 250-68 16Z"/>
  <path d="M240 1620l70-10 20 190-76 12Z"/>
  <path d="M600 1600l64 8-6 212-70-4Z"/>
  <path d="M40 1470l50-14 18 160-56 10Z"/>
  <path d="M940 1520l52-10 30 180-58 12Z"/>
 </g>
 <path d="M330 1100c-10-90 14-150 2-224l40-58 8 34-26 46c8 62-12 116 2 198Z" fill="#241109"/>
 <g fill="#241109">
  <path d="M818 1140l-22-330 30-4 20 334Z"/>
  <path d="M806 902l-96-102 20-20 90 96Z"/>
  <path d="M812 828l72-130 26 14-72 126Z"/>
  <path d="M802 990l-58-40 14-22 52 36Z"/>
  <path d="M820 950l86-58 14 22-84 58Z"/>
 </g>
 <path d="M0 940Q240 906 480 934T1080 926V960Q800 986 520 962T0 972Z" fill="#8a2c12" opacity=".5"/>
</svg>
